<svg width="1149" height="309" viewBox="0 0 1149 309" fill="none" xmlns="http://www.w3.org/2000/svg">
<path d="M904.726 286.681C902.809 239.716 909.592 192.945 907.674 145.979C907.602 144.23 906.112 143.439 904.55 143.681C876.862 147.977 848.053 147.625 820.123 148.376C772.664 149.653 725.182 150.142 677.708 150.493C570.637 151.284 463.56 151.041 356.486 150.778C318.677 150.685 280.865 150.473 243.056 150.666C242.081 150.671 240.894 151.466 240.741 152.5C234.416 195.11 238.546 238.31 237.713 281.187C237.694 282.14 238.528 283.382 239.542 283.508C313.036 292.609 388.764 291.245 462.664 292.747C569.669 294.925 676.768 296.02 783.787 294.241C823.25 293.584 863.043 293.263 902.337 289.165C905.431 288.843 905.37 283.958 902.249 284.283C806.187 294.302 707.617 290.559 611.22 289.89C503.361 289.139 395.293 287.899 287.559 282.241C276.434 281.657 255.586 284.304 245.439 279.309C242.195 277.711 243.768 279.975 242.338 277.072C241.318 275.001 242.743 265.466 242.731 262.954C242.683 252.076 242.415 241.201 242.255 230.325C242.106 220.267 241.987 210.207 242.121 200.147C242.244 190.983 239.72 167.724 244.595 159.526C247.988 153.821 244.79 156.595 251.673 155.515C254.851 155.017 258.537 155.502 261.734 155.498C269.857 155.491 277.979 155.499 286.101 155.509C307.184 155.536 328.267 155.591 349.349 155.643C464.55 155.925 579.756 156.233 694.953 155.237C748.451 154.775 801.995 154.3 855.455 152.089C864.406 151.719 873.355 151.304 882.293 150.704C887.243 150.372 895.859 147.857 900.598 149.111C906.96 150.794 904.043 150.012 903.251 160.702C902.343 172.958 902.927 185.453 902.342 197.759C900.927 227.452 898.643 257.021 899.858 286.767C899.986 289.905 904.855 289.828 904.726 286.681Z" fill="black"/>
<path d="M904.988 239.398C940.858 235.341 976.728 231.285 1012.6 227.227C1013.88 227.083 1015.05 226.163 1014.99 224.743C1012.97 179.495 1014.42 134.177 1012.73 88.9225C1012.28 76.8957 1011.55 74.5875 1000.03 72.2092C989.157 69.9624 977.708 69.6072 966.658 69.0858C907.748 66.3111 848.823 70.3097 789.936 71.5292C787.992 71.5693 786.559 74.3737 788.29 75.7276C824.335 103.912 864.897 124.799 904.049 148.153C906.749 149.765 909.12 145.499 906.429 143.893C867.643 120.757 827.383 100.138 791.67 72.212C791.121 73.6121 790.572 75.0113 790.024 76.4104C850.794 75.1519 911.713 70.7182 972.488 74.2684C979.49 74.6769 986.514 75.153 993.464 76.1165C1003.97 77.573 1006.4 80.5055 1007.96 91.7521C1011.12 114.547 1008.73 139.46 1008.87 162.463C1008.95 173.866 1009.03 185.268 1009.24 196.668C1009.34 202.117 1010.52 208.615 1009.68 214.038C1008.22 223.455 1007.19 222.16 997.136 224.082C967.057 229.833 935.335 231.072 904.899 234.514C901.813 234.865 901.871 239.752 904.988 239.398Z" fill="black"/>
<path d="M791.509 151.96C791.862 126.4 792.215 100.841 792.568 75.2802C792.612 72.1359 787.743 72.2269 787.7 75.3682C787.347 100.929 786.994 126.488 786.641 152.048C786.598 155.192 791.466 155.101 791.509 151.96Z" fill="black"/>
<path d="M1011.41 173.209C1034.93 172.739 1058.45 172.568 1081.97 172.293C1102.32 172.053 1124.66 174.101 1144.79 170.711C1146.34 170.449 1146.96 168.299 1146.18 167.098C1138.22 154.779 1130.27 142.46 1122.31 130.141C1116.34 120.902 1110.38 111.663 1104.41 102.424C1101.1 97.2957 1094.89 90.8628 1093.14 84.9716C1092.17 81.7305 1092.44 87.0454 1092.73 85.2251C1093.05 83.1299 1095.57 80.1648 1096.6 78.3328C1101.54 69.5371 1106.47 60.7356 1111.38 51.9234C1117.01 41.8331 1130.95 25.3623 1131.81 13.5369C1131.9 12.296 1130.56 11.0132 1129.34 11.1403C1092.32 14.9909 1052.89 11.0248 1015.73 10.8455C978.146 10.6637 940.562 10.4629 902.977 10.2482C900.451 10.2338 899.873 13.5798 901.83 14.8196C934.612 35.5695 967.394 56.3205 1000.18 77.0704C1002.83 78.7527 1005.2 74.4822 1002.56 72.8097C969.775 52.0597 936.993 31.3088 904.211 10.5589C903.828 12.0821 903.447 13.6062 903.064 15.1304C959.359 15.454 1015.66 15.7586 1071.95 15.9782C1085.75 16.0319 1099.54 16.0876 1113.34 16.0982C1116.45 16.1011 1122.01 17.1746 1125.03 16.0889C1132.21 13.5068 1124.49 18.617 1126.77 13.589C1115.83 37.7057 1101.01 60.5762 1088.02 83.6408C1087.61 84.3845 1087.6 85.3797 1088.07 86.1053C1096.71 99.4913 1105.36 112.878 1114.01 126.265C1116.3 129.815 1143.65 167.224 1141.91 169.475C1143.12 167.916 1118.33 166.968 1115.68 167.002C1103.69 167.157 1091.71 167.294 1079.71 167.434C1056.92 167.702 1034.11 167.87 1011.32 168.325C1008.19 168.388 1008.27 173.272 1011.41 173.209Z" fill="black"/>
<path d="M906.01 68.2118C904.635 49.7246 904.599 31.1743 903.223 12.6871C902.991 9.5658 898.121 9.63382 898.355 12.7751C899.73 31.2623 899.767 49.8126 901.142 68.2998C901.374 71.4201 906.244 71.3521 906.01 68.2118Z" fill="black"/>
<path d="M239.367 237.996C211.705 236.014 181.518 238.892 154.293 233.924C145.484 232.317 144.134 233.78 141.833 224.517C140.761 220.198 141.76 214.523 141.692 210.105C141.517 198.777 141.201 187.452 140.871 176.128C140.159 151.853 137.267 126.47 139.134 102.247C139.934 91.8671 142.127 88.1399 151.68 86.3459C159.027 84.9669 166.512 84.1975 173.949 83.493C234.557 77.7487 295.596 79.9779 356.372 79.0393C355.773 77.6599 355.175 76.2815 354.576 74.9031C319.894 104.102 280.406 126.161 242.482 150.684C239.854 152.384 242.373 156.565 245.015 154.856C283.298 130.101 323.077 107.765 358.08 78.2943C359.76 76.8797 358.242 74.1277 356.284 74.1581C297.392 75.0676 238.359 73.1992 179.588 78.1032C168.587 79.0212 157.11 79.7468 146.348 82.4297C136.315 84.9314 134.71 86.3176 134.271 96.8473C132.346 142.897 137.305 189.303 136.916 235.404C136.905 236.81 138.109 237.71 139.394 237.802C172.716 240.189 206.133 240.49 239.454 242.878C242.581 243.102 242.473 238.218 239.367 237.996Z" fill="black"/>
<path d="M362.311 150.954C361.092 126.607 359.876 102.261 358.658 77.9138C358.502 74.7811 353.633 74.8561 353.79 78.0018C355.008 102.349 356.224 126.695 357.443 151.042C357.599 154.174 362.468 154.099 362.311 150.954Z" fill="black"/>
<path d="M138.543 178.893C116.468 179.25 94.3968 179.884 72.326 180.422C60.1253 180.72 47.9248 181.023 35.724 181.308C33.3836 181.363 6.55554 182.931 8.07491 184.763C6.34491 182.676 31.3769 145.654 33.4261 142.215C41.9091 127.978 50.3922 113.74 58.8743 99.5024C59.3159 98.7603 59.2749 97.7659 58.8297 97.0378C45.135 74.6567 33.0913 50.1583 17.8154 28.8909C19.7781 31.6229 12.4943 28.6551 19.4064 30.8675C22.5259 31.8663 27.8814 30.5723 31.0918 30.4542C44.8779 29.945 58.6621 29.3898 72.4474 28.8385C128.699 26.5855 184.945 24.2456 241.191 21.8877C240.754 20.3783 240.318 18.8689 239.88 17.3606C207.87 39.2817 175.86 61.2038 143.849 83.124C141.273 84.8898 143.785 89.0751 146.382 87.2958C178.393 65.3747 210.403 43.4536 242.413 21.5325C244.324 20.2238 243.63 16.8998 241.102 17.0055C203.551 18.5794 165.998 20.1373 128.445 21.6773C91.3085 23.1997 52.0555 28.5891 14.9241 26.0777C13.6924 25.994 12.4003 27.3305 12.5346 28.5623C13.7674 39.8289 27.6492 55.1305 33.3473 64.547C38.6867 73.369 44.0467 82.1765 49.4177 90.9789C50.6442 92.9891 53.3866 96.027 53.899 98.3171C54.6238 101.562 54.5744 94.8454 53.7683 98.5515C52.6029 103.91 46.7481 110.334 43.9485 115.034C38.3728 124.392 32.798 133.749 27.2222 143.107C19.3905 156.251 11.5587 169.396 3.72701 182.54C2.99509 183.768 3.68465 185.895 5.2466 186.1C25.4911 188.763 47.7311 185.907 68.0834 185.41C91.5969 184.837 115.112 184.157 138.63 183.776C141.764 183.725 141.681 178.843 138.543 178.893Z" fill="black"/>
<path d="M245.035 74.9488C245.741 56.425 245.107 37.8855 245.813 19.3607C245.933 16.218 241.066 16.316 240.945 19.4487C240.239 37.9735 240.872 56.512 240.166 75.0368C240.046 78.1795 244.915 78.0815 245.035 74.9488Z" fill="black"/>
<path d="M803.14 148.924C804.129 126.918 803.79 104.971 802.123 83.0058C801.886 79.8856 797.017 79.9526 797.254 83.0938C798.922 105.06 799.261 127.005 798.272 149.012C798.131 152.153 803 152.053 803.14 148.924Z" fill="black"/>
<path d="M815.708 147.123C816.242 128.511 815.166 110.062 812.471 91.6392C812.023 88.5728 807.15 88.6209 807.603 91.7272C810.297 110.151 811.373 128.6 810.839 147.211C810.75 150.355 815.617 150.26 815.708 147.123Z" fill="black"/>
<path d="M824.966 149.485C825.51 132.326 825.252 115.199 824.195 98.0644C824.002 94.9374 819.133 95.0084 819.327 98.1524C820.385 115.287 820.642 132.413 820.098 149.573C819.998 152.716 824.866 152.62 824.966 149.485Z" fill="black"/>
<path d="M835.014 148.99C835.103 141.461 835.028 133.941 834.686 126.417C834.529 122.947 834.322 119.48 834.066 116.016C833.83 112.819 832.083 106.872 833.131 103.887C831.781 104.27 830.432 104.654 829.082 105.037C829.148 105.102 829.216 105.166 829.282 105.232C829.261 104.081 829.24 102.93 829.219 101.778C829.173 101.825 829.126 101.872 829.08 101.918C826.859 104.141 830.365 107.529 832.585 105.309C832.631 105.262 832.678 105.215 832.725 105.169C833.656 104.236 833.595 102.621 832.663 101.716C832.596 101.652 832.529 101.587 832.462 101.523C831.056 100.159 829.006 100.986 828.414 102.674C826.569 107.93 829.336 117.399 829.646 123.037C830.121 131.713 830.249 140.391 830.145 149.078C830.108 152.223 834.976 152.131 835.014 148.99Z" fill="black"/>
<path d="M844.685 148.814C844.688 135.812 843.821 122.9 842.079 110.016C840.489 110.261 838.9 110.506 837.31 110.751C837.383 110.971 837.454 111.192 837.527 111.412C838.504 114.386 843.182 113.025 842.197 110.029C842.124 109.809 842.054 109.588 841.981 109.369C841.166 106.888 836.827 107.258 837.212 110.104C838.953 122.988 839.822 135.9 839.818 148.902C839.816 152.046 844.685 151.959 844.685 148.814Z" fill="black"/>
<path d="M854.598 148.008C854.476 137.039 853.226 126.246 850.892 115.533C850.224 112.464 845.554 113.853 846.222 116.915C848.465 127.212 849.612 137.56 849.73 148.096C849.766 151.239 854.634 151.155 854.598 148.008Z" fill="black"/>
<path d="M861.558 147.882C861.381 137.54 860.308 127.329 858.395 117.167C857.865 114.354 853.697 115.275 853.626 117.904C853.618 118.163 853.611 118.421 853.605 118.68C853.519 121.823 858.388 121.729 858.473 118.592C858.48 118.333 858.487 118.075 858.494 117.816C856.904 118.06 855.314 118.305 853.725 118.551C855.558 128.287 856.523 138.068 856.691 147.971C856.743 151.113 861.612 151.03 861.558 147.882Z" fill="black"/>
<path d="M869.475 147.419C868.803 139.739 867.76 132.118 866.366 124.537C865.94 122.224 861.992 122.271 861.671 124.621C861.589 125.219 861.507 125.817 861.427 126.415C861.005 129.498 865.72 130.737 866.144 127.628C866.226 127.029 866.307 126.432 866.389 125.834C864.824 125.863 863.26 125.891 861.695 125.919C863.011 133.073 863.973 140.26 864.607 147.507C864.88 150.62 869.749 150.556 869.475 147.419Z" fill="black"/>
<path d="M868.64 126.179C869.598 133.586 870.61 140.967 872.666 148.163C873.527 151.18 878.201 149.81 877.336 146.78C875.4 140.002 874.41 133.069 873.508 126.091C873.109 123.008 868.236 123.061 868.64 126.179Z" fill="black"/>
<path d="M877.151 132.168C878.076 137.664 878.999 143.16 879.924 148.655C880.315 150.986 884.298 150.903 884.618 148.571C884.654 148.306 884.69 148.042 884.727 147.779C885.15 144.695 880.436 143.456 880.009 146.566C879.973 146.83 879.937 147.094 879.9 147.358C881.465 147.329 883.03 147.301 884.595 147.273C883.67 141.778 882.747 136.281 881.822 130.785C881.303 127.697 876.636 129.098 877.151 132.168Z" fill="black"/>
<path d="M883.797 136.711C885 140.481 886.204 144.252 887.409 148.023C888.363 151.008 893.039 149.645 892.079 146.64C890.876 142.87 889.672 139.099 888.467 135.329C887.514 132.344 882.837 133.707 883.797 136.711Z" fill="black"/>
<path d="M890.973 140.096C891.011 142.78 891.644 145.223 892.758 147.651C894.065 150.499 898.216 147.941 896.917 145.111C896.171 143.488 895.866 141.782 895.841 140.008C895.796 136.867 890.929 136.951 890.973 140.096Z" fill="black"/>
<path d="M986.294 71.2753C986.477 68.6306 986.229 66.0476 985.646 63.4648C984.954 60.4018 980.284 61.7874 980.975 64.8474C981.463 67.0069 981.579 69.1572 981.425 71.3633C981.208 74.4968 986.078 74.3907 986.294 71.2753Z" fill="black"/>
<path d="M980.05 69.781C980.049 68.1047 980.028 66.4288 979.974 64.7545C979.927 63.3031 980.043 61.6198 979.593 60.2267C979.338 59.4372 978.699 58.7286 977.862 58.5527C977.793 58.5379 977.726 58.5241 977.657 58.5094C976.823 58.3334 975.889 58.5163 975.3 59.1801C975.259 59.2258 975.218 59.2726 975.177 59.3193C973.095 61.6624 976.592 65.0617 978.682 62.7096C978.723 62.6628 978.764 62.617 978.804 62.5703C978.019 62.7935 977.233 63.0178 976.448 63.241C976.516 63.2548 976.585 63.2695 976.653 63.2843C976.076 62.7266 975.499 62.168 974.922 61.6103C975.3 62.7777 975.096 64.3976 975.129 65.6162C975.167 67.0338 975.181 68.4508 975.181 69.87C975.183 73.0125 980.051 72.9254 980.05 69.781Z" fill="black"/>
<path d="M974.348 69.524C974.191 67.1484 974.035 64.7728 973.879 62.3972C973.754 60.4992 974.007 58.1303 973.072 56.4279C972.36 55.1325 970.211 54.8043 969.241 56.004C969.212 56.0376 969.185 56.0721 969.158 56.1056C968.385 57.0607 968.13 58.6715 969.22 59.559C969.245 59.5785 969.269 59.5991 969.293 59.6187C971.712 61.5853 975.111 58.0863 972.673 56.103C972.648 56.0835 972.624 56.0629 972.599 56.0434C972.62 57.1942 972.641 58.345 972.662 59.4968C972.69 59.4622 972.717 59.4288 972.745 59.3943C971.468 59.2533 970.19 59.1114 968.913 58.9695C968.763 58.6971 968.876 60.4494 968.893 60.7051C968.962 61.744 969.029 62.784 969.098 63.8229C969.225 65.7529 969.352 67.6829 969.479 69.6129C969.686 72.7367 974.555 72.6667 974.348 69.524Z" fill="black"/>
<path d="M967.448 69.8277C967.225 64.6209 966.808 59.4325 966.2 54.2567C965.836 51.1648 960.964 51.2208 961.332 54.3447C961.941 59.5205 962.357 64.7079 962.58 69.9157C962.715 73.0518 967.584 72.9758 967.448 69.8277Z" fill="black"/>
<path d="M961.161 68.3781C960.058 61.7659 959.444 55.116 959.246 48.4165C959.194 46.6471 957.107 45.3026 955.546 46.374C954.708 46.9493 954.307 47.4886 954.016 48.452C953.103 51.466 957.825 52.6639 958.733 49.6649C958.516 49.9579 958.297 50.2519 958.078 50.5449C956.845 49.8651 955.611 49.1843 954.378 48.5035C954.589 55.6468 955.316 62.7129 956.49 69.7598C957.005 72.849 961.674 71.4493 961.161 68.3781Z" fill="black"/>
<path d="M952.822 68.1188C952.142 59.7027 951.302 51.3065 950.302 42.9232C949.933 39.8323 945.062 39.8884 945.434 43.0112C946.434 51.3945 947.274 59.7917 947.954 68.2068C948.206 71.3237 953.076 71.2577 952.822 68.1188Z" fill="black"/>
<path d="M943.705 69.3478C943.585 62.4888 943.185 55.6529 942.364 48.8396C941.864 44.691 942.007 37.6523 939.561 34.2559C938.459 32.7246 936.398 32.7298 935.358 34.3319C935.298 34.424 935.239 34.5151 935.18 34.6071C934.423 35.771 935.076 37.2415 936.113 37.9308C936.179 37.9757 936.245 38.0194 936.311 38.0633C938.928 39.8053 941.288 35.5319 938.692 33.8025C938.626 33.7587 938.559 33.7149 938.493 33.6711C938.804 34.7787 939.116 35.8872 939.426 36.9948C939.486 36.9027 939.545 36.8116 939.604 36.7205C938.204 36.7459 936.803 36.7712 935.401 36.7965C936.566 38.4117 936.974 44.9174 937.171 46.3781C937.513 48.9253 937.801 51.4805 938.041 54.0386C938.52 59.1608 938.747 64.2925 938.837 69.4347C938.891 72.5783 943.76 72.4953 943.705 69.3478Z" fill="black"/>
<path d="M933.131 69.5509C933.058 55.3859 932.275 41.5848 928.749 27.8203C927.97 24.7779 923.298 26.1565 924.078 29.2029C927.499 42.5543 928.194 55.9179 928.263 69.6389C928.279 72.7831 933.148 72.6961 933.131 69.5509Z" fill="black"/>
<path d="M921.699 68.8614C921.537 59.6378 921.702 50.3293 921.055 41.1265C920.708 36.1769 920.688 25.1735 917.601 21.2337C915.968 19.1508 912.445 20.3417 913.186 23.1958C913.203 23.2615 913.219 23.3272 913.236 23.3929C914.025 26.4331 918.697 25.0555 917.907 22.0103C917.89 21.9456 917.874 21.8798 917.857 21.8131C916.385 22.4668 914.914 23.1215 913.441 23.7753C915.274 26.1135 915.34 33.1755 915.71 36.1433C916.21 40.1429 916.364 44.1457 916.461 48.1717C916.629 55.0967 916.709 62.0245 916.831 68.9504C916.887 72.0909 921.755 72.0079 921.699 68.8614Z" fill="black"/>
<path d="M913.235 68.6613C912.817 51.157 911.92 33.6844 910.544 16.2294C910.36 13.8953 907.211 12.8641 905.987 15.0796C905.833 15.3574 905.68 15.6342 905.526 15.913C904.003 18.666 908.253 21.0516 909.774 18.3006C909.928 18.0228 910.081 17.746 910.235 17.4682C908.715 17.0846 907.195 16.701 905.677 16.3174C907.053 33.7724 907.951 51.245 908.368 68.7493C908.443 71.8885 913.31 71.8075 913.235 68.6613Z" fill="black"/>
<path d="M351.925 152.155C352.686 130.61 347.77 110.348 347.014 89.0991C346.903 85.9616 342.034 86.0396 342.146 89.1871C342.901 110.421 347.817 130.737 347.057 152.243C346.946 155.386 351.814 155.288 351.925 152.155Z" fill="black"/>
<path d="M340.788 152.621C340.512 142.71 340.265 132.782 339.362 122.904C338.977 118.681 338.489 114.47 337.854 110.278C337.623 108.754 334.761 99.5702 335.43 98.504C333.944 98.3368 332.458 98.1686 330.971 98.0015C330.988 98.0842 331.005 98.1679 331.022 98.2506C331.786 97.2066 332.55 96.1626 333.314 95.1176C333.251 95.1268 333.189 95.135 333.126 95.1451C330.066 95.5855 330.115 100.473 333.215 100.027C333.277 100.018 333.339 100.009 333.402 99.9999C335.051 99.7621 336.039 98.567 335.693 96.867C335.676 96.7843 335.66 96.7006 335.642 96.6179C335.194 94.4206 332.209 94.4836 331.183 96.1154C330.589 97.0603 330.879 97.6171 330.63 98.5437C331.298 101.29 331.883 104.055 332.385 106.836C333.089 110.795 333.654 114.773 334.078 118.77C335.328 130.035 335.605 141.388 335.921 152.708C336.008 155.848 340.877 155.768 340.788 152.621Z" fill="black"/>
<path d="M332.972 151.744C331.879 134.654 330.698 117.571 329.428 100.493C329.196 97.3715 324.327 97.4395 324.56 100.581C325.83 117.659 327.01 134.742 328.104 151.832C328.305 154.959 333.174 154.889 332.972 151.744Z" fill="black"/>
<path d="M322.356 151.649C323.491 136.541 322.395 121.712 319.162 106.92C318.481 103.807 313.976 105.272 314.491 108.303C314.568 108.756 314.645 109.209 314.723 109.662C315.248 112.75 319.915 111.349 319.393 108.279C319.315 107.827 319.239 107.374 319.162 106.92C317.605 107.382 316.048 107.843 314.491 108.303C317.636 122.69 318.59 137.065 317.488 151.737C317.252 154.87 322.121 154.761 322.356 151.649Z" fill="black"/>
<path d="M314.484 152.72C312.376 138.958 311.455 125.143 311.61 111.223C311.642 108.474 307.446 107.976 306.818 110.66C306.725 111.06 306.631 111.461 306.537 111.861C305.82 114.922 310.538 116.136 311.255 113.074C311.349 112.675 311.442 112.274 311.536 111.873C309.938 111.686 308.341 111.499 306.743 111.311C306.582 125.686 307.638 139.897 309.814 154.103C310.286 157.195 314.954 155.79 314.484 152.72Z" fill="black"/>
<path d="M304.818 151.473C304.042 140.301 304.173 128.556 301.766 117.597C301.199 115.021 297.81 115.635 297.072 117.682C297.006 117.863 296.942 118.043 296.877 118.223C295.811 121.182 300.538 122.367 301.594 119.436C301.66 119.256 301.725 119.076 301.789 118.895C300.225 118.924 298.66 118.952 297.095 118.98C299.404 129.486 299.206 140.847 299.951 151.561C300.166 154.685 305.036 154.616 304.818 151.473Z" fill="black"/>
<path d="M295.665 150.858C295.86 145.546 295.98 140.234 295.991 134.917C295.999 131.071 296.874 125.731 295.585 122.087C295.248 121.136 294.296 120.232 293.205 120.338C293.123 120.346 293.041 120.355 292.957 120.361C291.891 120.464 290.909 121.097 290.643 122.195C290.627 122.264 290.61 122.331 290.594 122.399C289.855 125.455 294.572 126.668 295.312 123.612C295.328 123.544 295.345 123.477 295.361 123.408C294.589 124.02 293.818 124.632 293.046 125.242C293.129 125.235 293.21 125.226 293.293 125.219C292.501 124.635 291.708 124.051 290.914 123.469C292.192 127.079 291.139 133.379 291.114 137.129C291.083 141.736 290.966 146.34 290.798 150.944C290.683 154.089 295.552 153.992 295.665 150.858Z" fill="black"/>
<path d="M287.769 150.748C287.828 143.271 287.888 135.794 287.946 128.316C287.972 125.172 283.104 125.261 283.078 128.404C283.019 135.881 282.959 143.358 282.901 150.836C282.876 153.981 287.745 153.891 287.769 150.748Z" fill="black"/>
<path d="M279.75 150.885C280.074 145.213 280.396 139.541 280.72 133.87C280.899 130.731 276.029 130.835 275.851 133.958C275.528 139.629 275.205 145.301 274.882 150.973C274.702 154.112 279.571 154.008 279.75 150.885Z" fill="black"/>
<path d="M271.916 150.521C272.196 145.707 272.476 140.89 272.756 136.075C272.938 132.936 268.071 133.04 267.888 136.163C267.608 140.978 267.328 145.795 267.048 150.609C266.866 153.747 271.735 153.643 271.916 150.521Z" fill="black"/>
<path d="M266.042 151.4C265.851 148.262 265.893 145.115 266.28 141.992C266.443 140.673 265.911 139.392 264.526 139.02C263.381 138.713 261.724 139.472 261.562 140.779C261.122 144.35 260.956 147.892 261.174 151.489C261.365 154.615 266.234 154.544 266.042 151.4Z" fill="black"/>
<path d="M259.01 151.011C259.035 148.776 259.062 146.54 259.089 144.304C259.126 141.16 254.258 141.25 254.22 144.392C254.194 146.627 254.167 148.863 254.141 151.099C254.105 154.243 258.972 154.152 259.01 151.011Z" fill="black"/>
<path d="M234.624 76.1552C231.432 60.8484 234.349 42.6467 234.639 27.0439C234.698 23.8993 229.83 23.9923 229.771 27.1319C229.472 43.1889 226.663 61.7598 229.953 77.5379C230.595 80.6098 235.264 79.2191 234.624 76.1552Z" fill="black"/>
<path d="M223.155 76.2205C223.176 67.6157 223.135 59.011 223.003 50.408C222.922 45.1696 224.28 37.3068 222.052 32.5073C221.539 31.4024 219.661 30.9443 218.706 31.6916C218.639 31.7449 218.571 31.7971 218.505 31.8493C217.503 32.6335 216.892 34.0058 217.692 35.2045C217.728 35.2579 217.764 35.3122 217.799 35.3656C219.534 37.9707 223.706 35.4489 221.958 32.825C221.922 32.7717 221.886 32.7183 221.851 32.665C221.58 33.783 221.309 34.9021 221.038 36.0202C221.106 35.968 221.174 35.9147 221.24 35.8635C220.125 35.5917 219.008 35.3198 217.893 35.0479C218.854 37.1189 217.971 41.5895 218.02 44.0451C218.096 47.8083 218.154 51.5729 218.199 55.3357C218.282 62.3263 218.304 69.3171 218.287 76.3085C218.28 79.4522 223.148 79.3642 223.155 76.2205Z" fill="black"/>
<path d="M210.843 78.0513C211.529 65.9009 211.582 53.766 211.002 41.6105C210.895 39.358 207.492 38.1333 206.444 40.4607C206.281 40.8247 206.115 41.1897 205.951 41.5548C204.667 44.4034 208.908 46.8082 210.199 43.9434C210.363 43.5784 210.529 43.2133 210.692 42.8483C209.173 42.4657 207.654 42.0821 206.135 41.6984C206.714 53.854 206.662 65.9899 205.976 78.1393C205.799 81.277 210.668 81.174 210.843 78.0513Z" fill="black"/>
<path d="M202.755 77.2423C202.517 68.1882 202.277 59.135 202.038 50.0809C201.956 46.9409 197.087 47.0219 197.17 50.1689C197.409 59.222 197.649 68.2762 197.887 77.3303C197.97 80.4693 202.838 80.3893 202.755 77.2423Z" fill="black"/>
<path d="M195.635 77.6961C195.35 70.107 195.063 62.517 194.778 54.9279C194.66 51.7915 189.792 51.8695 189.91 55.0159C190.195 62.605 190.481 70.1951 190.766 77.7842C190.886 80.9205 195.754 80.8445 195.635 77.6961Z" fill="black"/>
<path d="M189.671 77.6419C189.501 73.6793 189.321 69.7169 189.124 65.7559C188.997 63.2077 189.622 59.0478 188.211 56.8359C187.624 55.9174 186.496 55.4607 185.441 55.7628C185.389 55.7778 185.335 55.7937 185.281 55.8087C182.271 56.6722 183.639 61.3603 186.661 60.4925C186.714 60.4776 186.768 60.4626 186.821 60.4476C185.898 60.0902 184.975 59.7319 184.051 59.3745C184.357 59.8531 184.064 62.0757 184.106 62.8721C184.195 64.6047 184.281 66.3385 184.365 68.0713C184.521 71.29 184.665 74.5089 184.802 77.729C184.937 80.866 189.804 80.79 189.671 77.6419Z" fill="black"/>
<path d="M183.549 79.0528C183.422 73.4481 182.988 67.8751 182.25 62.3185C181.841 59.2394 176.968 59.2915 177.382 62.4065C178.121 67.9641 178.553 73.5352 178.681 79.1408C178.754 82.282 183.622 82.201 183.549 79.0528Z" fill="black"/>
<path d="M177.645 80.6187C177.232 76.2335 176.818 71.8493 176.403 67.463C176.11 64.3538 171.24 64.4169 171.535 67.551C171.949 71.9363 172.363 76.3205 172.777 80.7067C173.07 83.8149 177.941 83.7529 177.645 80.6187Z" fill="black"/>
<path d="M171.992 79.9138C171.877 76.9854 171.761 74.058 171.646 71.1296C171.522 67.9943 166.654 68.0713 166.778 71.2176C166.893 74.146 167.009 77.0734 167.124 80.0018C167.247 83.1381 172.116 83.0611 171.992 79.9138Z" fill="black"/>
<path d="M166.072 80.5059C165.841 78.0707 165.608 75.6365 165.377 73.2023C165.081 70.0931 160.211 70.1551 160.509 73.2903C160.74 75.7245 160.972 78.1587 161.204 80.5939C161.5 83.7031 166.371 83.64 166.072 80.5059Z" fill="black"/>
<path d="M161.316 81.409C161.241 79.9871 161.105 78.5793 160.904 77.1707C160.717 75.8549 159.859 74.7622 158.427 74.7731C157.236 74.7816 155.852 75.9538 156.037 77.2587C156.238 78.6683 156.374 80.0761 156.449 81.497C156.612 84.6285 161.481 84.5545 161.316 81.409Z" fill="black"/>
<path d="M280.872 240.659C276.435 240.649 273.128 239.031 270.95 235.802C268.808 232.574 267.743 227.926 267.755 221.859C267.768 215.793 268.852 211.15 271.008 207.93C273.198 204.711 276.512 203.105 280.95 203.115C282.614 203.118 284.052 203.346 285.264 203.799C286.477 204.253 287.515 204.861 288.381 205.626C289.246 206.39 289.972 207.259 290.559 208.23C291.147 209.168 291.665 210.122 292.113 211.094L288.366 212.802C288.055 212.004 287.693 211.258 287.278 210.564C286.864 209.835 286.363 209.21 285.774 208.689C285.221 208.133 284.546 207.698 283.749 207.384C282.987 207.071 282.051 206.913 280.942 206.911C278.065 206.905 275.913 207.992 274.487 210.173C273.096 212.354 272.397 215.265 272.389 218.905L272.377 224.833C272.369 228.473 273.057 231.386 274.439 233.573C275.856 235.76 278.003 236.857 280.88 236.863C281.99 236.865 282.926 236.711 283.689 236.4C284.487 236.09 285.164 235.675 285.72 235.157C286.31 234.603 286.814 233.98 287.232 233.288C287.649 232.56 288.015 231.799 288.328 231.002L292.069 232.726C291.616 233.73 291.094 234.7 290.503 235.634C289.911 236.569 289.182 237.417 288.313 238.178C287.445 238.939 286.404 239.543 285.19 239.991C283.975 240.44 282.536 240.662 280.872 240.659ZM310.856 240.72C308.984 240.716 307.286 240.384 305.762 239.722C304.273 239.06 302.992 238.121 301.92 236.906C300.882 235.656 300.088 234.181 299.537 232.481C298.986 230.747 298.713 228.805 298.717 226.655C298.721 224.541 299.003 222.617 299.561 220.885C300.119 219.153 300.919 217.681 301.962 216.47C303.039 215.224 304.324 214.273 305.816 213.618C307.343 212.962 309.042 212.637 310.914 212.64C312.786 212.644 314.467 212.977 315.956 213.639C317.48 214.301 318.76 215.257 319.798 216.507C320.87 217.722 321.682 219.197 322.233 220.932C322.784 222.666 323.057 224.591 323.053 226.705C323.048 228.855 322.767 230.796 322.209 232.528C321.651 234.225 320.833 235.697 319.756 236.943C318.713 238.154 317.429 239.087 315.902 239.743C314.41 240.398 312.728 240.724 310.856 240.72ZM310.863 237.132C313.186 237.137 315.059 236.448 316.484 235.064C317.908 233.68 318.623 231.532 318.629 228.62L318.637 224.772C318.643 221.86 317.937 219.71 316.518 218.32C315.1 216.93 313.229 216.233 310.906 216.228C308.584 216.224 306.71 216.913 305.286 218.297C303.862 219.681 303.147 221.828 303.141 224.74L303.133 228.588C303.127 231.5 303.833 233.651 305.252 235.041C306.67 236.43 308.541 237.128 310.863 237.132ZM329.245 240.134L329.3 213.302L333.148 213.31L333.142 216.43L333.35 216.431C333.768 215.391 334.359 214.509 335.123 213.782C335.887 213.056 337.015 212.694 338.505 212.697C340.065 212.7 341.226 213.102 341.987 213.9C342.748 214.665 343.214 215.671 343.385 216.919L343.541 216.92C344.029 215.707 344.724 214.703 345.627 213.908C346.53 213.112 347.779 212.716 349.373 212.72C351.557 212.724 353.012 213.49 353.737 215.017C354.496 216.544 354.873 218.728 354.867 221.571L354.829 240.187L350.981 240.179L351.018 222.239C351.023 219.951 350.783 218.373 350.3 217.506C349.851 216.603 349.002 216.151 347.754 216.148C346.645 216.146 345.743 216.508 345.048 217.235C344.353 217.927 344.005 219.001 344.002 220.457L343.961 240.165L340.113 240.157L340.15 222.217C340.155 219.929 339.915 218.351 339.432 217.483C338.983 216.581 338.152 216.129 336.938 216.126C335.829 216.124 334.91 216.486 334.18 217.212C333.485 217.904 333.137 218.978 333.134 220.434L333.093 240.142L329.245 240.134ZM362.612 213.371L366.772 213.38L366.763 217.748L366.971 217.748C368.711 214.424 371.47 212.765 375.249 212.773C378.542 212.78 381.105 214.016 382.937 216.481C384.804 218.946 385.733 222.397 385.724 226.835C385.715 231.272 384.772 234.719 382.895 237.177C381.052 239.634 378.485 240.86 375.191 240.853C371.413 240.845 368.66 239.175 366.934 235.844L366.726 235.843L366.695 250.611L362.535 250.603L362.612 213.371ZM373.587 237.158C376.013 237.163 377.887 236.438 379.207 234.985C380.562 233.497 381.242 231.54 381.247 229.113L381.257 224.537C381.262 222.111 380.59 220.168 379.241 218.709C377.927 217.216 376.056 216.467 373.629 216.462C372.693 216.46 371.809 216.579 370.977 216.82C370.144 217.061 369.415 217.424 368.79 217.908C368.166 218.357 367.662 218.928 367.279 219.621C366.931 220.279 366.756 221.058 366.754 221.96L366.734 231.631C366.732 232.533 366.904 233.331 367.249 234.025C367.629 234.684 368.131 235.257 368.754 235.744C369.377 236.196 370.104 236.544 370.936 236.788C371.767 237.033 372.651 237.156 373.587 237.158ZM410.749 235.934L410.541 235.934C410.262 236.592 409.914 237.232 409.497 237.856C409.08 238.444 408.559 238.963 407.934 239.412C407.344 239.862 406.632 240.224 405.8 240.5C404.967 240.776 403.996 240.912 402.887 240.91C400.079 240.904 397.827 240.016 396.132 238.244C394.437 236.438 393.593 233.906 393.6 230.647L393.635 213.435L397.795 213.443L397.761 229.927C397.756 232.389 398.29 234.227 399.362 235.443C400.434 236.624 402.01 237.216 404.09 237.22C404.922 237.222 405.737 237.12 406.535 236.914C407.333 236.707 408.044 236.397 408.669 235.982C409.294 235.567 409.798 235.048 410.18 234.425C410.563 233.767 410.755 232.988 410.757 232.086L410.795 213.47L414.955 213.479L414.9 240.311L410.74 240.302L410.749 235.934ZM436.876 240.356C434.83 240.352 433.324 239.777 432.355 238.631C431.422 237.485 430.957 236.011 430.96 234.208L430.996 217.048L422.052 217.029L422.059 213.493L428.715 213.507C429.616 213.509 430.241 213.337 430.588 212.991C430.97 212.611 431.162 211.97 431.164 211.068L431.179 204.048L435.183 204.057L435.163 213.52L447.383 213.546L447.376 217.082L435.156 217.056L435.115 236.816L447.335 236.842L447.328 240.378L436.876 240.356ZM467.222 241.043C465.281 241.039 463.531 240.706 461.972 240.044C460.448 239.382 459.133 238.443 458.026 237.228C456.954 235.977 456.125 234.502 455.539 232.803C454.953 231.068 454.663 229.143 454.667 227.029C454.671 224.879 454.97 222.939 455.563 221.207C456.191 219.475 457.043 218.003 458.12 216.792C459.197 215.546 460.482 214.595 461.974 213.94C463.501 213.284 465.183 212.958 467.02 212.962C468.823 212.966 470.451 213.299 471.906 213.96C473.395 214.622 474.659 215.543 475.696 216.724C476.734 217.87 477.528 219.241 478.08 220.837C478.631 222.433 478.905 224.184 478.901 226.091L478.897 228.067L459.033 228.026L459.03 229.274C459.028 230.452 459.216 231.545 459.596 232.551C459.975 233.557 460.51 234.425 461.202 235.154C461.929 235.884 462.794 236.457 463.799 236.876C464.838 237.259 465.981 237.452 467.229 237.455C469.032 237.458 470.593 237.046 471.912 236.216C473.231 235.387 474.239 234.245 474.935 232.791L477.999 234.877C477.198 236.678 475.86 238.166 473.986 239.341C472.146 240.481 469.891 241.048 467.222 241.043ZM467.013 216.394C465.869 216.392 464.811 216.598 463.84 217.012C462.868 217.426 462.018 217.996 461.288 218.722C460.593 219.449 460.037 220.314 459.619 221.319C459.235 222.289 459.043 223.363 459.04 224.542L459.039 224.906L474.431 224.937L474.432 224.365C474.435 223.187 474.246 222.112 473.867 221.14C473.522 220.169 473.022 219.336 472.364 218.641C471.742 217.912 470.963 217.356 470.028 216.972C469.127 216.589 468.122 216.396 467.013 216.394ZM486.346 236.922L494.198 236.938L494.239 217.178L486.387 217.162L486.394 213.626L498.406 213.651L498.392 220.411L498.652 220.411C499.211 218.298 500.255 216.653 501.783 215.478C503.345 214.268 505.322 213.665 507.714 213.67L511.458 213.678L511.45 217.838L506.406 217.827C504.014 217.822 502.071 218.512 500.577 219.895C499.119 221.279 498.387 223.097 498.382 225.351L498.358 236.947L508.758 236.968L508.751 240.504L486.339 240.458L486.346 236.922ZM537.854 213.732L542.014 213.741L528.634 246.421C528.321 247.183 527.973 247.841 527.59 248.395C527.208 248.984 526.756 249.451 526.236 249.796C525.715 250.177 525.09 250.453 524.362 250.624C523.633 250.831 522.767 250.933 521.761 250.931L517.809 250.923L517.816 247.387L524.056 247.4L527.088 240.022L516.326 213.688L520.59 213.697L525.091 224.938L529.074 235.138L529.282 235.139L533.307 224.955L537.854 213.732ZM604.578 240.702L578.37 240.648L578.378 236.748L598.977 208.19L579.321 208.15L579.329 204.354L603.769 204.404L603.761 208.304L583.11 236.861L604.586 236.906L604.578 240.702ZM624.385 207.983C623.172 207.98 622.323 207.736 621.838 207.249C621.354 206.728 621.113 206.086 621.114 205.324L621.116 204.492C621.118 203.729 621.362 203.106 621.848 202.621C622.334 202.102 623.184 201.844 624.398 201.847C625.611 201.849 626.46 202.111 626.944 202.632C627.428 203.118 627.67 203.743 627.668 204.505L627.666 205.337C627.665 206.1 627.421 206.741 626.934 207.26C626.448 207.744 625.598 207.985 624.385 207.983ZM612.573 237.182L622.245 237.202L622.285 217.442L612.614 217.422L612.621 213.886L626.453 213.915L626.405 237.211L635.453 237.229L635.445 240.765L612.565 240.718L612.573 237.182ZM643.329 240.782L643.384 213.95L647.544 213.958L647.535 218.326L647.743 218.327C648.022 217.669 648.37 217.045 648.787 216.457C649.205 215.834 649.708 215.297 650.299 214.848C650.924 214.399 651.652 214.036 652.485 213.76C653.317 213.485 654.288 213.348 655.398 213.35C658.206 213.356 660.457 214.262 662.152 216.068C663.847 217.84 664.691 220.355 664.685 223.614L664.649 240.826L660.489 240.817L660.523 224.333C660.528 221.872 659.995 220.051 658.922 218.87C657.85 217.654 656.274 217.044 654.194 217.04C653.362 217.038 652.547 217.141 651.749 217.347C650.952 217.553 650.24 217.864 649.616 218.279C648.991 218.693 648.487 219.23 648.104 219.887C647.721 220.545 647.529 221.308 647.527 222.174L647.489 240.79L643.329 240.782ZM685.479 241.493C683.538 241.489 681.788 241.156 680.229 240.494C678.705 239.832 677.39 238.893 676.283 237.678C675.211 236.427 674.382 234.952 673.796 233.252C673.211 231.518 672.92 229.593 672.924 227.479C672.929 225.329 673.227 223.389 673.82 221.656C674.448 219.924 675.3 218.453 676.377 217.242C677.455 215.996 678.739 215.045 680.231 214.39C681.758 213.734 683.44 213.408 685.277 213.412C687.08 213.416 688.709 213.748 690.163 214.41C691.653 215.072 692.916 215.993 693.954 217.174C694.991 218.32 695.786 219.691 696.337 221.287C696.888 222.883 697.162 224.634 697.158 226.541L697.154 228.517L677.29 228.476L677.288 229.724C677.285 230.902 677.474 231.995 677.853 233.001C678.232 234.007 678.768 234.875 679.46 235.604C680.186 236.334 681.052 236.907 682.056 237.325C683.095 237.709 684.239 237.902 685.487 237.905C687.289 237.908 688.85 237.495 690.169 236.666C691.488 235.837 692.496 234.695 693.192 233.24L696.256 235.327C695.455 237.128 694.117 238.616 692.243 239.79C690.403 240.931 688.149 241.498 685.479 241.493ZM685.27 216.844C684.126 216.842 683.068 217.047 682.097 217.461C681.125 217.875 680.275 218.446 679.545 219.172C678.851 219.899 678.294 220.764 677.876 221.769C677.493 222.739 677.3 223.813 677.297 224.992L677.297 225.356L692.689 225.387L692.69 224.815C692.692 223.637 692.504 222.562 692.124 221.59C691.78 220.619 691.279 219.786 690.622 219.091C689.999 218.362 689.22 217.805 688.285 217.422C687.384 217.039 686.38 216.846 685.27 216.844ZM736.452 240.974L736.527 204.678L759.407 204.725L759.399 208.521L740.887 208.483L740.862 220.703L757.814 220.738L757.806 224.534L740.854 224.499L740.82 240.983L736.452 240.974ZM779.018 241.685C777.077 241.681 775.327 241.348 773.768 240.686C772.244 240.025 770.929 239.086 769.822 237.87C768.75 236.62 767.921 235.145 767.335 233.445C766.749 231.711 766.459 229.786 766.463 227.671C766.468 225.522 766.766 223.581 767.359 221.849C767.987 220.117 768.839 218.646 769.916 217.434C770.993 216.189 772.278 215.238 773.77 214.582C775.297 213.927 776.979 213.601 778.816 213.605C780.619 213.609 782.247 213.941 783.702 214.603C785.191 215.265 786.455 216.186 787.492 217.367C788.53 218.513 789.325 219.884 789.876 221.48C790.427 223.075 790.701 224.827 790.697 226.733L790.693 228.709L770.829 228.668L770.827 229.916C770.824 231.095 771.013 232.187 771.392 233.194C771.771 234.2 772.307 235.067 772.998 235.797C773.725 236.526 774.59 237.1 775.595 237.518C776.634 237.902 777.778 238.095 779.026 238.097C780.828 238.101 782.389 237.688 783.708 236.859C785.027 236.03 786.035 234.888 786.731 233.433L789.795 235.52C788.994 237.321 787.656 238.808 785.782 239.983C783.942 241.123 781.688 241.691 779.018 241.685ZM778.809 217.037C777.665 217.034 776.607 217.24 775.636 217.654C774.664 218.068 773.814 218.639 773.084 219.365C772.389 220.092 771.833 220.957 771.415 221.962C771.032 222.931 770.839 224.006 770.836 225.184L770.836 225.548L786.227 225.58L786.229 225.008C786.231 223.829 786.043 222.754 785.663 221.783C785.319 220.812 784.818 219.979 784.16 219.284C783.538 218.555 782.759 217.998 781.824 217.615C780.923 217.232 779.918 217.039 778.809 217.037ZM810.042 241.749C807.234 241.743 804.808 241.27 802.765 240.33C800.756 239.355 799.043 238.069 797.625 236.472L800.438 234.033C801.718 235.388 803.12 236.431 804.643 237.162C806.167 237.893 808.004 238.261 810.153 238.265C812.233 238.27 813.932 237.909 815.251 237.184C816.605 236.424 817.283 235.247 817.287 233.652C817.288 232.959 817.151 232.387 816.874 231.935C816.632 231.449 816.287 231.067 815.837 230.789C815.386 230.511 814.884 230.302 814.33 230.162C813.775 229.988 813.186 229.848 812.563 229.742L808.352 229.11C807.416 228.969 806.394 228.776 805.285 228.531C804.211 228.287 803.224 227.903 802.324 227.381C801.423 226.825 800.662 226.095 800.04 225.193C799.453 224.29 799.16 223.111 799.163 221.655C799.166 220.303 799.428 219.142 799.95 218.172C800.507 217.168 801.272 216.338 802.244 215.681C803.216 214.99 804.361 214.489 805.679 214.18C806.997 213.836 808.436 213.666 809.996 213.669C812.422 213.674 814.519 214.06 816.285 214.826C818.087 215.592 819.627 216.653 820.907 218.008L818.198 220.55C817.886 220.168 817.489 219.786 817.004 219.404C816.554 218.987 815.983 218.621 815.29 218.308C814.632 217.96 813.853 217.681 812.952 217.471C812.051 217.261 811.011 217.155 809.833 217.153C807.718 217.148 806.088 217.509 804.942 218.235C803.832 218.96 803.275 220.017 803.272 221.403C803.27 222.097 803.391 222.686 803.632 223.172C803.909 223.623 804.272 223.988 804.722 224.266C805.172 224.545 805.674 224.771 806.229 224.945C806.818 225.085 807.407 225.208 807.996 225.313L812.206 225.946C813.177 226.086 814.199 226.279 815.273 226.524C816.347 226.769 817.335 227.17 818.235 227.726C819.135 228.248 819.879 228.96 820.466 229.863C821.089 230.765 821.398 231.945 821.395 233.401C821.39 236.07 820.345 238.13 818.262 239.582C816.214 241.034 813.474 241.756 810.042 241.749ZM842.211 241.192C840.165 241.187 838.659 240.612 837.69 239.466C836.757 238.32 836.292 236.846 836.295 235.043L836.331 217.883L827.387 217.865L827.394 214.329L834.05 214.343C834.951 214.345 835.576 214.172 835.923 213.827C836.305 213.446 836.497 212.805 836.499 211.904L836.514 204.884L840.518 204.892L840.498 214.356L852.718 214.381L852.711 217.917L840.491 217.892L840.45 237.652L852.67 237.677L852.663 241.213L842.211 241.192ZM871.283 229.135L869.855 215.508L869.877 204.953L874.453 204.962L874.431 215.518L872.947 229.139L871.283 229.135ZM872.089 241.721C870.668 241.718 869.663 241.421 869.075 240.831C868.522 240.24 868.246 239.495 868.248 238.593L868.25 237.657C868.252 236.756 868.531 236.011 869.086 235.423C869.677 234.835 870.683 234.542 872.104 234.545C873.526 234.548 874.513 234.845 875.066 235.435C875.655 236.026 875.948 236.772 875.946 237.673L875.944 238.609C875.942 239.51 875.646 240.255 875.055 240.843C874.499 241.431 873.511 241.724 872.089 241.721Z" fill="black"/>
</svg>
